<svg xmlns="http://www.w3.org/2000/svg" viewBox="0 0 80 80" preserveAspectRatio="xMinYMin meet">
  <path
    d="M13.358 71.975s-6.482-61.154-.282-63.408a18.045 18.045 0 0128.181 0 15.564 15.564 0 0120.854 0s8.454 58.054-1.127 61.435a260.265 260.265 0 00-48.19.986"
    fill="gold" stroke="#000" stroke-width="2" />
  <path
    d="M27.004 70.002s1.973 8.173-5.636 10.145m26.209-10.145s-5.636 6.764 2.818 10.427m14.936-39.735s12.118.282 5.636-22.545M10.096 39.285S-2.023 42.667 4.74 60.703m25.646-12.119s18.036 8.454 19.163 0M20.804 22.94c3.945-4.792 7.045-3.382 10.145.845m12.682-.564c3.382-2.255 9.018-4.79 10.145.846"
    fill="none" stroke="#000" stroke-width="2" /></svg>