<svg xmlns="http://www.w3.org/2000/svg" width="768" height="768" viewBox="-1.734 -1.734 61.263 61.263">
  <path
    d="M54.228 11.987a23.32 23.32 0 00-2.004-3.4l-8.212 2.988a15.351 15.351 0 012.413 3.252l7.803-2.84zM17.925 21.07L9.71 24.059a23.89 23.89 0 00.651 3.893l7.804-2.84a15.271 15.271 0 01-.24-4.042"
    fill="#c22133" />
  <path
    d="M36.156 9.66a15.205 15.205 0 014.438 3.16l8.212-2.989a23.35 23.35 0 00-9.17-7.63C27.895-3.276 13.887 1.822 8.414 13.562a23.32 23.32 0 00-2.122 11.74l8.214-2.988a15.19 15.19 0 011.366-5.274C19.43 9.414 28.53 6.104 36.156 9.661M44.916 24.668a15.063 15.063 0 01-1.379 5.274c-3.556 7.629-12.656 10.939-20.282 7.382a15.11 15.11 0 01-4.447-3.155l-8.196 2.983a23.294 23.294 0 009.164 7.634c11.741 5.473 25.746.376 31.221-11.365a23.254 23.254 0 002.115-11.735l-8.196 2.982z"
    fill="#db212e" />
  <path
    d="M46.935 14.641l-7.803 2.84a15.311 15.311 0 011.91 8.595l8.196-2.981a23.665 23.665 0 00-2.303-8.454M10.873 27.765l-7.804 2.843a23.758 23.758 0 003.67 7.955l8.195-2.984a15.34 15.34 0 01-4.061-7.814"
    fill="#eb2126" />
  <path
    d="M53.038 9.823a22.41 22.41 0 00-.813-1.236l-8.213 2.988c.361.37.694.763 1.011 1.165l8.015-2.917zM17.894 22.719c-.02-.547-.012-1.097.03-1.648L9.71 24.059c.042.527.109 1.05.187 1.57l7.997-2.91z"
    fill="#ad213b" />
  <path
    d="M53.112 21.686l-8.197 2.982a14.996 14.996 0 01-.692 3.525l8.921-3.252c.064-1.09.054-2.178-.032-3.255m-42.5 15.467c.632.889 1.33 1.736 2.09 2.536l8.922-3.253a15.164 15.164 0 01-2.816-2.267l-8.195 2.984z"
    fill="#ba2133" /></svg>